<svg xmlns="http://www.w3.org/2000/svg" width="9" height="15" viewBox="0 0 9 15">
  <path fill="#D8D8D8" fill-rule="evenodd" d="M349.933432,20.3703834 L355.233716,15.0700997 C355.705653,14.5981627 355.705653,13.8258897 355.233716,13.3539527 C354.761779,12.8820158 353.989506,12.8820158 353.517535,13.3539527 L347.45349,19.4179977 C347.419067,19.4455496 347.385738,19.4750841 347.353845,19.5069431 C347.116509,19.7443131 346.998644,20.0575705 347.000012,20.3703834 C346.998644,20.6831963 347.116509,20.9964536 347.353845,21.2338237 C347.385738,21.2656826 347.419067,21.2952172 347.453524,21.322769 L353.517535,27.3868482 C353.989506,27.858751 354.761779,27.858751 355.233716,27.3868482 C355.705653,26.9148771 355.705653,26.1426041 355.233716,25.6706671 L349.933432,20.3703834 Z" transform="matrix(-1 0 0 1 355.588 -13)"/>
</svg>
