<svg xmlns="http://www.w3.org/2000/svg" width="22" height="16" viewBox="0 0 22 16">
  <path fill="#FFF" fill-rule="evenodd" d="M42,4 L57,4 C57.5522847,4 58,4.44771525 58,5 C58,5.55228475 57.5522847,6 57,6 L42,6 C41.4477153,6 41,5.55228475 41,5 C41,4.44771525 41.4477153,4 42,4 Z M37,4 C37.5522847,4 38,4.44771525 38,5 C38,5.55228475 37.5522847,6 37,6 C36.4477153,6 36,5.55228475 36,5 C36,4.44771525 36.4477153,4 37,4 Z M37,11 C37.5522847,11 38,11.4477153 38,12 C38,12.5522847 37.5522847,13 37,13 C36.4477153,13 36,12.5522847 36,12 C36,11.4477153 36.4477153,11 37,11 Z M37,18 C37.5522847,18 38,18.4477153 38,19 C38,19.5522847 37.5522847,20 37,20 C36.4477153,20 36,19.5522847 36,19 C36,18.4477153 36.4477153,18 37,18 Z M42,11 L57,11 C57.5522847,11 58,11.4477153 58,12 C58,12.5522847 57.5522847,13 57,13 L42,13 C41.4477153,13 41,12.5522847 41,12 C41,11.4477153 41.4477153,11 42,11 Z M42,18 L57,18 C57.5522847,18 58,18.4477153 58,19 C58,19.5522847 57.5522847,20 57,20 L42,20 C41.4477153,20 41,19.5522847 41,19 C41,18.4477153 41.4477153,18 42,18 Z" transform="translate(-36 -4)"/>
</svg>
