<svg xmlns="http://www.w3.org/2000/svg" width="11" height="14" viewBox="0 0 11 14">
  <path fill="#D8D8D8" d="M10.2939738,5.34634085 C10.0855461,2.70451928 7.86231685,0.621544569 5.20486319,0.621544569 C2.54740953,0.621544569 0.324180322,2.70451928 0.15049054,5.34634085 C0.0636456496,6.53177361 0.445763169,7.73414113 1.20999821,8.7332916 L4.85748362,13.8137177 C4.94432851,13.932261 5.06591136,14 5.22223216,14 C5.37855297,14 5.50013581,13.932261 5.58698071,13.8137177 L9.21709714,8.7332916 C9.98133218,7.71720637 10.3634497,6.51483886 10.2939738,5.34634085 Z M5.20486319,7.75107588 C4.02377267,7.75107588 3.06847887,6.80272967 3.06847887,5.65116642 C3.06847887,4.49960317 4.02377267,3.55125696 5.20486319,3.55125696 C6.3859537,3.55125696 7.3412475,4.49960317 7.3412475,5.65116642 C7.3412475,6.80272967 6.3859537,7.75107588 5.20486319,7.75107588 Z"/>
</svg>
