<svg xmlns="http://www.w3.org/2000/svg" width="18" height="18" viewBox="0 0 18 18">
  <path fill="#FFF" d="M6.75414605,3.19560021 L1.58860199,5.52713896 C1.23030886,5.68885946 1,6.04549492 1,6.43859477 L1,19.431803 C1,19.9840877 1.44771525,20.431803 2,20.431803 C2.1418608,20.431803 2.28209816,20.40162 2.41139801,20.3432588 L6.75414605,18.3831002 C7.02834169,18.2593383 7.34368477,18.2655924 7.61275765,18.4001288 L12.3857938,20.7866469 C12.655694,20.921597 12.9721004,20.9274544 13.2468104,20.8025862 L18.4138029,18.4539532 C18.7707972,18.2916831 19,17.9357302 19,17.5435867 L19,4.55300418 C19,4.00071943 18.5522847,3.55300418 18,3.55300418 C17.8572491,3.55300418 17.7161527,3.58356697 17.5861971,3.6426377 L13.2468104,5.6150862 C12.9721004,5.73995439 12.655694,5.73409702 12.3857938,5.59914691 L7.61275765,3.21262883 C7.34368477,3.07809239 7.02834169,3.07183827 6.75414605,3.19560021 Z M5.44816334,16.7061677 L4.63566334,17.0457927 C4.12610358,17.2587887 3.54035641,17.0183763 3.32736042,16.5088165 C3.27629541,16.3866514 3.25,16.2555614 3.25,16.1231531 L3.25,7.96299799 C3.25,7.55846939 3.49372108,7.19378697 3.867485,7.03904871 L4.679985,6.70267371 C5.1902681,6.49141651 5.77519208,6.73382489 5.98644928,7.24410799 C6.0366584,7.36538605 6.0625,7.49536248 6.0625,7.62662299 L6.0625,15.7835281 C6.0625,16.1868158 5.8202525,16.5506345 5.44816334,16.7061677 Z M14.5233542,7.51468634 L15.34375,7.14140625 C15.8436386,6.91395692 16.4332626,7.13481262 16.6607119,7.63470125 C16.7195538,7.76402407 16.75,7.90445459 16.75,8.0465347 L16.75,16.0948294 C16.75,16.4871366 16.520608,16.8432065 16.1633913,17.0053829 L15.34375,17.3775 C14.8434061,17.6046561 14.2536507,17.3831937 14.0264946,16.8828498 C13.9678435,16.7536623 13.9375,16.6134251 13.9375,16.4715472 L13.9375,8.4248969 C13.9375,8.03288981 14.1665452,7.67703443 14.5233542,7.51468634 Z" transform="translate(-1 -3)"/>
</svg>
