<svg xmlns="http://www.w3.org/2000/svg" xmlns:xlink="http://www.w3.org/1999/xlink" width="105" height="26" viewBox="0 0 105 26">
  <defs>
    <polygon id="logo-a" points="0 .14 20.003 .14 20.003 25.885 0 25.885"/>
  </defs>
  <g fill="none" fill-rule="evenodd" transform="translate(-1 -10)">
    <g transform="translate(1.388 9.757)">
      <mask id="logo-b" fill="#fff">
        <use xlink:href="#logo-a"/>
      </mask>
      <path fill="#FFF" d="M10.0015665,0.140060119 C10.0015665,0.140060119 0.000168534483,11.3195474 0.000168534483,17.3006604 C0.000168534483,21.341527 3.0377217,24.7470869 7.19322026,25.826377 L7.37411394,25.8848995 C5.73820589,23.5451246 3.94331365,20.5087067 3.94331365,18.4412866 C3.94331365,15.8803641 5.78427198,13.7223466 8.30217716,13.0386461 L8.32127773,13.0386461 C8.82126336,12.8872754 9.39315704,12.8006171 10.0015665,12.8006171 C10.609976,12.8006171 11.1824315,12.8872754 11.6829789,13.0392088 L11.7026412,13.0392088 C14.2194228,13.723472 16.0598194,15.8809268 16.0598194,18.4412866 C16.0598194,20.5047677 14.2638036,23.5434364 12.6273338,25.8843368 L12.8076657,25.8269397 C16.963726,24.7482123 20.0029645,21.3420897 20.0029645,17.3006604 C20.0029645,11.3054795 10.0015665,0.140060119 10.0015665,0.140060119" mask="url(#logo-b)"/>
      <path fill="#FFF" d="M9.9137931,21.5044248 C11.3372028,21.5044248 12.4913793,20.3452375 12.4913793,18.9162103 C12.4913793,17.4860588 11.3372028,16.3274336 9.9137931,16.3274336 C8.49038339,16.3274336 7.3362069,17.4860588 7.3362069,18.9162103 C7.3362069,20.3452375 8.49038339,21.5044248 9.9137931,21.5044248"/>
      <path fill="#FFF" d="M9.9137931,21.5044248 C11.3372028,21.5044248 12.4913793,20.3452375 12.4913793,18.9162103 C12.4913793,17.4860588 11.3372028,16.3274336 9.9137931,16.3274336 C8.49038339,16.3274336 7.3362069,17.4860588 7.3362069,18.9162103 C7.3362069,20.3452375 8.49038339,21.5044248 9.9137931,21.5044248"/>
    </g>
    <g fill="#FFF" transform="translate(30.248 15.15)">
      <path d="M4.94032097 6.92341175C5.73954937 6.92341175 6.49111345 7.22046256 7.05797832 7.76434643 7.24948673 7.95159909 7.509087 8.03075589 7.77549647 8.04607656 8.04445938 8.03841623 8.29554818 7.92861808 8.48280084 7.73115164 8.6700535 7.54389898 8.76793557 7.29536363 8.76197753 7.02554957 8.75687064 6.75658666 8.64451904 6.50294442 8.45471294 6.32590554 7.51419389 5.40836751 6.28343323 4.90533877 4.97862265 4.90533877L4.90201929 4.90533877C3.56656737 4.94959849 2.32814637 5.4926312 1.41826867 6.44421517.482856518 7.37707388-.017618773 8.63592244.000255344536 9.98924848.0445150641 11.3170401.590101223 12.5656749 1.5382806 13.4959801 2.4762462 14.3930906 3.70700686 14.8901613 5.0041571 14.8901613L5.08586736 14.8901613C6.31152113 14.8697337 7.48865944 14.395644 8.3908768 13.5521559 8.79602347 13.1648834 8.82155792 12.5248197 8.44194571 12.1298868 8.25724649 11.9273135 7.99594392 11.8090039 7.71932067 11.803897L7.69889311 11.803897C7.44439972 11.803897 7.21118505 11.8992256 7.03925306 12.0703065 6.47068589 12.5912093 5.75742349 12.8729394 5.02458467 12.8729394 4.99649677 12.8754929 4.96840887 12.8754929 4.94287442 12.8754929 4.18960803 12.8754929 3.47379218 12.5758886 2.92565258 12.0268979 2.35878771 11.5093996 2.01747718 10.7297476 2.01747718 9.9509468 1.99534732 9.18661549 2.28729124 8.43334911 2.83543084 7.83839634 3.42783017 7.24344357 4.17428736 6.92341175 4.94032097 6.92341175M14.6274969 12.7267973C13.0384027 12.7267973 11.7463594 11.4551815 11.7463594 9.88906831 11.7463594 8.31018793 13.0384027 7.02835836 14.6274969 7.02835836 16.2063772 7.02835836 17.4882068 8.31018793 17.4882068 9.88906831 17.4882068 11.4551815 16.2063772 12.7267973 14.6274969 12.7267973M18.934308 4.99070896C18.3419087 4.99070896 18.0729458 5.48011932 18.0729458 5.93633489L18.0729458 6.561929 17.6703526 6.2333857C16.7145129 5.45203142 15.7169669 5.07241921 14.6274969 5.07241921 11.9744671 5.07241921 9.81340121 7.23348513 9.81340121 9.88906831 9.81340121 12.5293308 11.9744671 14.680183 14.6274969 14.680183 15.7552686 14.680183 16.7477077 14.2954639 17.6652457 13.5064492L18.0729458 13.1549249 18.0729458 13.9447907C18.0729458 14.4010063 18.3419087 14.8904166 18.934308 14.8904166 19.4747873 14.8904166 19.9003615 14.4750562 19.9003615 13.9447907L19.9003615 5.93633489C19.9003615 5.40521826 19.4747873 4.99070896 18.934308 4.99070896M31.4027817 5.03156408C30.3592737 5.03156408 29.3957737 5.4077717 28.6884693 6.09294621L28.5216442 6.25466441 28.3497122 6.0980531C27.5887855 5.40096251 26.6499688 5.03156408 25.6319952 5.03156408 25.0038477 5.03156408 24.3944254 5.17966392 23.8173467 5.46735209L23.6173268 5.56693646 23.4998684 5.38053495C23.3509174 5.14646913 23.0487597 4.99070896 22.7457508 4.99070896 22.207825 4.99070896 21.7362888 5.47245898 21.7362888 6.02144974L21.7362888 14.0060734C21.7362888 14.531232 22.207825 14.995959 22.7457508 14.995959 23.2989973 14.995959 23.7535106 14.5525107 23.7535106 14.0060734L23.7535106 8.7383156C23.7535106 7.79013622 24.5782734 7.04878592 25.6319952 7.04878592 26.685717 7.04878592 27.5087776 7.79013622 27.5087776 8.7383156L27.5087776 13.9447907C27.5087776 14.5184648 27.9420121 14.9516993 28.5156862 14.9516993 29.0595701 14.9516993 29.5030184 14.4980372 29.5030184 13.9447907L29.5030184 8.79959829C29.5030184 7.79013622 30.3362927 7.04878592 31.4027817 7.04878592 32.4147973 7.04878592 33.2378578 7.8054569 33.2378578 8.7383156L33.2378578 13.9447907C33.2378578 14.4980372 33.6991803 14.9516993 34.2660451 14.9516993 34.8201428 14.9516993 35.2550796 14.508251 35.2550796 13.9447907L35.2550796 8.79959829C35.2550796 6.69555931 33.5280994 5.03156408 31.4027817 5.03156408M42.2407955 12.9986541C40.5819071 12.9986541 39.233688 11.6504349 39.233688 9.99154658 39.233688 8.33521169 40.5819071 6.98784369 42.2407955 6.98784369 43.8971304 6.98784369 45.2453495 8.33521169 45.2453495 9.99154658 45.2453495 11.6504349 43.8971304 12.9986541 42.2407955 12.9986541M42.2407955 4.94934314C41.2109058 4.94934314 40.1980392 5.26001233 39.3928527 5.82347261L39.1213364 6.01327871 39.0183474 5.69750263C38.8779079 5.28299334 38.4753147 4.99019827 38.0395267 4.99019827 37.4726618 4.99019827 37.0087859 5.44471154 37.0087859 5.99795804L37.0087859 19.2971526C37.0087859 19.8742313 37.462448 20.3244888 38.0395267 20.3244888 38.5927732 20.3244888 39.0472865 19.8631664 39.0472865 19.2971526L39.0472865 13.9519403 39.4260475 14.1953688C40.2874098 14.7443596 41.2619747 15.0371546 42.2407955 15.0371546 45.0197952 15.0371546 47.2829989 12.7730997 47.2829989 9.99154658 47.2829989 7.21339803 45.0197952 4.94934314 42.2407955 4.94934314M52.5123699-.0000851148454C50.3666246-.0000851148454 48.6183657 1.74817381 48.6183657 3.89391906L48.6183657 13.6931912C48.6183657 14.2702699 49.0720278 14.723932 49.6491065 14.723932 50.2032041 14.723932 50.6568663 14.2600561 50.6568663 13.6931912L50.6568663 7.10530218 53.3090448 7.10530218C53.8759097 7.10530218 54.3389345 6.64057512 54.3389345 6.0745614 54.3389345 5.49748275 53.8852723 5.04382062 53.3090448 5.04382062L50.6568663 5.04382062 50.6568663 4.49908561C50.6568663 4.40375699 50.6568663 4.31693984 50.6389921 4.23948533L50.6262249 4.18075609 50.6415456 4.12202685C50.6568663 4.06840449 50.6568663 3.97818276 50.6568663 3.89391906 50.6568663 2.8810524 51.4892895 2.05799185 52.5123699 2.05799185 52.9277303 2.05799185 53.3124494 2.18396182 53.6248209 2.41972994 54.0716739 2.75593358 54.7653598 2.58655504 55.0556015 2.21545431 55.196041 2.03586199 55.2607282 1.74306692 55.2198731 1.45622989 55.1807203 1.17109516 55.0504946.936178184 54.8530281.787227205 54.1789186.271431242 53.3686252-.0000851148454 52.5123699-.0000851148454M56.6937218 4.98458069C56.1268569 4.98458069 55.662981 5.43824282 55.662981 5.99234046L55.662981 13.6935317C55.662981 14.2697592 56.1166431 14.7234213 56.6937218 14.7234213 57.2469683 14.7234213 57.7014816 14.2595454 57.7014816 13.6935317L57.7014816 5.99234046C57.7014816 5.43824282 57.2469683 4.98458069 56.6937218 4.98458069M68.0757045 8.79730019L68.3216864 8.41768798C68.875784 7.55887919 69.8137496 7.04904126 70.8291697 7.04904126 71.8590594 7.04904126 72.7153147 7.5537723 73.1800418 8.4355621L73.3715502 8.79730019 68.0757045 8.79730019zM74.9223426 7.37928686C74.2022711 6.18001869 73.0285373 5.34674436 71.7032992 5.09310212 71.4309317 5.03692632 71.1619688 5.01054072 70.8291697 5.01054072 68.0833648 5.01054072 65.848249 7.25416804 65.848249 10.011889 65.848249 12.7704612 68.0833648 15.0157908 70.8291697 15.0157908 71.369649 15.0157908 73.2464313 14.913653 74.6099712 13.6011821 74.8074376 13.4088225 74.9206404 13.1415619 74.9206404 12.8649386 74.9206404 12.6010826 74.8176514 12.3551007 74.6303987 12.1780618 74.2405727 11.7703617 73.6022114 11.7678083 73.1953624 12.1576343 72.6055166 12.7244992 71.5594551 13.0189965 70.8291697 13.0189965 69.4554161 13.0189965 68.2655106 12.0733706 67.9327115 10.7200445L67.8578105 10.4144823 74.6125246 10.4144823C75.1198091 10.4144823 75.3504703 9.95571323 75.4100507 9.81442259 75.4866541 9.6195096 75.5590017 9.43566153 75.5590017 9.30203122 75.5870896 8.79985363 75.3794094 8.17425952 74.9223426 7.37928686zM65.5738387 5.73188903C64.8997291 5.21694422 64.0894358 4.94542786 63.2331805 4.94542786 61.0874352 4.94542786 59.3391763 6.69283564 59.3391763 8.83858089L59.3391763 13.7156615C59.3391763 14.2927402 59.7928384 14.7464023 60.3699171 14.7464023 60.9240147 14.7464023 61.3768257 14.2816753 61.3768257 13.7156615L61.3768257 13.6262909 61.3768257 11.6967374 61.3768257 9.44374744C61.3768257 9.34926996 61.3768257 9.26160167 61.3589516 9.18499831L61.3461843 9.12626907 61.361505 9.06668867C61.3768257 9.01306632 61.3768257 8.92369573 61.3768257 8.83858089 61.3768257 7.82656538 62.2101 7.00350482 63.2331805 7.00350482 63.6485409 7.00350482 64.03326 7.12947479 64.3456315 7.36439177 64.7916333 7.70059541 65.4861704 7.53121686 65.7764121 7.16011614 65.9168515 6.98052381 65.9815388 6.68857989 65.9406837 6.40089172 65.9015309 6.11660813 65.770454 5.88084001 65.5738387 5.73188903"/>
    </g>
  </g>
</svg>
